<svg version="1.1" id="Layer_1" xmlns="http://www.w3.org/2000/svg" xmlns:xlink="http://www.w3.org/1999/xlink" x="0px" y="0px"
	 width="100%" viewBox="0 0 624 400" enable-background="new 0 0 624 400" xml:space="preserve">
<path fill="#000000" opacity="1.000000" stroke="none" 
	d="
M358.999878,237.374603 
	C280.010681,237.371872 201.521454,237.370468 123.032242,237.363464 
	C115.897743,237.362823 116.268036,237.310883 115.605492,230.355759 
	C115.046455,224.487305 116.816338,218.406799 114.031609,212.729416 
	C113.001213,210.628677 116.151772,210.920944 116.179375,208.943710 
	C116.073685,207.313690 111.978699,205.123093 116.791962,203.298981 
	C113.384789,200.777222 111.596558,198.297775 116.522827,195.909805 
	C116.664436,195.841156 116.886444,195.644577 116.863869,195.572769 
	C114.722092,188.758408 124.173004,185.102966 121.618996,177.860794 
	C121.050659,176.249207 123.501465,173.572922 125.297623,171.253769 
	C127.506538,179.348969 130.523407,186.832825 136.135818,193.525665 
	C134.659683,196.097916 131.865906,199.315414 137.688522,201.503235 
	C134.563614,204.330887 135.523697,206.848892 137.536423,209.475830 
	C140.665955,199.682556 141.900696,189.660278 144.257187,179.811493 
	C147.731796,184.475922 149.241577,189.357925 148.834839,194.940155 
	C150.228760,193.060944 151.275192,191.065323 153.616913,189.753998 
	C151.570129,187.482849 149.831406,185.553497 148.189362,183.731461 
	C148.610535,181.234421 150.854691,182.969193 151.970291,181.936905 
	C151.563812,180.411407 151.189575,179.006973 150.847275,177.722321 
	C152.118652,176.334167 153.149628,178.157791 154.211884,177.625900 
	C153.911713,170.164948 157.805328,164.151169 160.916641,157.592453 
	C161.032623,164.384903 169.357162,168.394684 166.563522,176.340393 
	C167.130997,177.627960 169.098572,176.496933 170.453690,177.518036 
	C168.280655,181.850464 176.717285,185.383255 171.323257,190.383499 
	C169.769318,191.823959 171.411713,193.066040 173.175522,193.116089 
	C174.606979,193.156677 175.838852,191.630600 177.639404,192.507721 
	C178.341507,194.501968 172.564453,196.535019 177.535187,198.267044 
	C176.780579,200.330627 174.362823,200.754181 174.264084,202.957825 
	C176.330185,204.446091 178.374222,201.556168 180.700043,203.167191 
	C179.677094,205.725418 177.039597,206.975174 175.272507,209.160263 
	C176.946915,210.030731 178.505722,210.841110 179.936951,211.585175 
	C180.678513,213.645477 177.817673,213.835159 178.246185,215.454361 
	C179.064362,217.107635 181.223557,216.087372 182.124603,217.595673 
	C181.528763,219.676102 180.863434,221.654785 178.494843,222.534943 
	C177.370743,222.952652 176.470627,223.845581 176.762894,225.230743 
	C177.025909,226.477203 177.911804,227.421112 179.168839,227.437424 
	C185.826996,227.523926 192.487457,227.553391 199.145111,227.459915 
	C200.576874,227.439835 201.985535,226.358139 201.401123,224.841232 
	C200.451096,222.375320 200.603943,218.918930 196.926254,218.339264 
	C195.454163,218.107239 193.927521,218.245407 192.439102,218.088364 
	C188.350754,217.656967 185.933212,215.319763 185.890121,211.244934 
	C185.766769,199.582153 185.690750,187.913055 185.953888,176.254517 
	C186.080872,170.628082 192.522141,165.009064 198.758835,165.339218 
	C204.259964,165.630417 208.493088,163.488190 212.254837,160.152649 
	C216.387161,156.488510 220.295700,156.304749 224.939011,159.158051 
	C234.316406,164.920456 244.808456,163.271408 255.034149,163.182144 
	C255.676590,163.176559 256.339722,162.899277 256.953400,162.650253 
	C263.258270,160.091705 281.653931,139.844666 284.042480,132.632263 
	C275.435913,130.738663 266.796082,134.314209 257.151306,132.812714 
	C261.084503,129.623856 264.866455,129.771225 268.266693,129.014114 
	C273.806458,127.780609 275.273132,125.763161 274.072662,120.005074 
	C273.739075,118.405083 273.416840,116.802727 273.008240,114.804688 
	C277.711395,113.749702 280.908752,115.940979 283.887085,118.582504 
	C284.994049,119.564270 285.826904,120.853859 286.792511,121.996536 
	C288.010101,123.437462 288.557983,126.062225 291.156128,125.312790 
	C293.595306,124.609207 291.587250,121.920715 293.200592,120.094742 
	C295.579651,119.052948 297.540649,120.646782 299.218872,122.481773 
	C300.707672,124.109619 302.352448,124.882324 304.508026,124.614182 
	C318.957489,122.816742 333.468353,123.935814 347.950165,123.794403 
	C350.622864,123.768311 353.827362,121.710701 355.397400,122.850151 
	C358.054626,124.778618 360.635315,124.574577 363.363983,124.814232 
	C375.965302,125.921005 388.480072,127.664246 400.893097,130.080292 
	C402.740784,130.439941 404.918457,130.474197 407.027374,133.222855 
	C392.621094,134.073090 379.132721,130.925217 365.585510,131.317413 
	C365.566406,131.791077 365.547302,132.264740 365.528168,132.738403 
	C370.487427,132.738403 375.451904,132.881332 380.404480,132.699234 
	C385.620605,132.507431 389.606018,133.795914 390.960297,139.535782 
	C391.205048,140.573013 392.103210,141.593674 392.953125,142.329178 
	C401.015900,149.306641 409.135620,156.218262 417.233002,163.155807 
	C418.422333,164.174805 419.841553,164.405228 421.331635,164.742691 
	C429.969971,166.699112 438.011749,170.408966 446.249390,173.530731 
	C449.047882,174.591263 450.159515,177.129868 450.176605,179.970306 
	C450.238800,190.301575 450.237701,200.633835 450.163513,210.965027 
	C450.129211,215.738831 447.092651,217.817947 442.782867,218.090149 
	C438.632629,218.352249 434.455139,218.195724 430.289612,218.199631 
	C422.290558,218.207123 422.290558,218.200241 420.112305,226.546280 
	C421.485626,228.292633 423.471497,227.610367 425.191986,227.629654 
	C432.356720,227.709900 439.522980,227.666000 446.688629,227.642990 
	C455.407928,227.615005 458.709045,222.877838 455.260590,214.641632 
	C454.123627,211.926102 454.652710,210.756531 457.074860,209.957687 
	C456.607697,207.558319 451.672455,204.172897 458.930176,204.100555 
	C455.704895,201.644623 450.512085,199.647369 457.001465,195.619492 
	C455.310516,188.849228 464.605835,185.236969 461.986816,177.852264 
	C461.349915,176.056381 463.428406,172.958740 466.657745,170.690308 
	C467.147858,179.773178 471.925690,186.344254 476.380157,193.680573 
	C474.868896,196.315689 473.086243,199.586502 477.552948,201.428543 
	C478.400665,203.452576 475.580444,203.947586 476.778107,206.393906 
	C483.933899,198.622513 480.246246,187.806183 485.066315,179.127182 
	C487.180450,181.923981 489.516846,182.512741 492.196777,181.873596 
	C492.607849,180.174362 491.014313,179.123428 490.904938,177.713470 
	C491.782837,176.153137 493.134583,177.627426 493.886902,177.183777 
	C495.966675,170.103165 497.135620,162.917664 501.654999,156.525787 
	C501.590393,163.645554 509.916107,168.114441 507.218353,176.417603 
	C507.871002,177.612442 509.779572,176.429291 511.056000,177.289093 
	C508.891876,181.918701 518.115723,186.420227 510.959717,190.765671 
	C512.562683,196.024185 516.277527,190.626373 518.521423,192.574295 
	C518.163696,194.950226 515.780029,195.311356 514.516907,196.858414 
	C515.460388,197.926453 517.566467,196.096756 518.151855,198.454880 
	C517.062927,199.775986 515.857666,201.238220 514.606750,202.755936 
	C516.990112,204.569336 519.248718,200.987595 521.644226,203.518478 
	C519.529358,205.494095 517.424255,207.460617 515.070679,209.659210 
	C516.864624,210.267899 519.211975,210.018723 520.419189,212.053955 
	C520.795898,213.731583 518.574951,213.770248 518.380188,215.222366 
	C519.090088,217.113068 521.381042,216.126846 522.614746,217.419800 
	C522.037048,219.611038 521.447937,221.741257 518.814209,222.646423 
	C517.329224,223.156784 517.177795,224.560165 517.453308,226.012024 
	C517.700745,227.316208 517.951050,228.638489 517.994751,229.959579 
	C518.226074,236.960907 517.829529,237.372726 510.974762,237.373337 
	C460.483154,237.377792 409.991516,237.374939 358.999878,237.374603 
M425.248962,176.675476 
	C427.297760,176.373901 429.595123,177.426880 431.406982,175.605255 
	C431.485107,172.867676 429.241547,172.457901 427.506958,171.699203 
	C422.012726,169.296097 416.085999,169.814590 410.313080,169.253616 
	C408.012238,169.030060 404.585114,170.540878 403.801758,167.326813 
	C402.968597,163.908234 407.515228,165.541901 409.055756,162.861725 
	C404.760925,159.008331 400.316467,155.087570 395.950531,151.081238 
	C392.772430,148.164932 388.458282,145.984512 386.862366,141.979782 
	C385.166748,137.724899 382.471130,137.332108 378.720093,137.342224 
	C351.390350,137.416046 324.059998,137.438583 296.730560,137.315887 
	C291.617065,137.292938 286.755585,136.819717 284.709198,143.130173 
	C284.250244,144.545410 282.487762,145.550369 281.295135,146.713196 
	C275.091492,152.761780 268.953003,158.880203 262.635437,164.807632 
	C259.618500,167.638290 259.434601,171.035553 260.441498,174.456375 
	C261.502777,178.062042 264.919647,176.623520 267.330719,176.626938 
	C319.657593,176.701401 371.984619,176.679184 425.248962,176.675476 
M220.567734,181.239151 
	C218.570206,181.221619 216.568710,181.275742 214.576324,181.165390 
	C212.765442,181.065109 210.394897,181.060730 210.492325,178.609955 
	C210.580688,176.387634 212.887024,176.719528 214.474167,176.711456 
	C224.628922,176.659790 234.783997,176.681503 244.938934,176.657944 
	C246.934418,176.653320 248.945480,176.694061 250.921173,176.467789 
	C253.482224,176.174469 254.600357,174.459045 254.687271,171.979294 
	C254.780182,169.328003 252.784668,169.222107 250.963989,168.966385 
	C249.319458,168.735428 247.666168,168.486191 246.010391,168.428986 
	C233.670700,168.002701 221.442413,169.315033 209.252548,170.997345 
	C204.991745,171.585388 200.491867,171.521149 195.692734,174.396133 
	C200.137711,176.942917 199.677002,180.407394 199.688751,184.012543 
	C199.703735,188.597061 197.591110,190.357788 193.392776,191.189392 
	C190.774872,191.707932 190.981979,194.431183 191.055893,196.620941 
	C191.113205,198.319336 191.824265,199.578522 193.699539,199.597214 
	C198.254959,199.642624 202.449982,200.144485 206.494644,196.171707 
	C219.548706,183.349777 240.793228,189.110672 246.297882,206.522964 
	C247.025986,208.826141 247.243912,211.383698 249.391373,213.691620 
	C252.983200,211.200684 254.063385,207.564606 254.367798,203.859421 
	C254.789215,198.729843 254.757614,193.551529 254.695190,188.396805 
	C254.626556,182.730438 253.216507,181.333694 247.517426,181.269714 
	C238.861832,181.172531 230.204346,181.243469 220.567734,181.239151 
M289.499939,227.674927 
	C316.790344,227.674026 344.080780,227.683212 371.371155,227.650803 
	C373.305054,227.648499 375.817505,228.350021 376.883484,226.321884 
	C378.072632,224.059372 376.317261,221.770081 375.312164,219.818253 
	C374.001587,217.273285 371.161011,218.238815 368.948425,218.235931 
	C330.508881,218.185989 292.069244,218.198837 253.629623,218.202286 
	C246.461151,218.202927 245.437500,219.209579 244.754242,227.674377 
	C259.372467,227.674377 273.936188,227.674377 289.499939,227.674927 
M285.500153,213.630157 
	C300.603821,213.478561 315.733276,214.052399 330.822327,212.552887 
	C328.163757,210.336411 325.218689,210.357056 322.284241,210.355728 
	C304.287140,210.347641 286.289978,210.376892 268.293030,210.324280 
	C263.232117,210.309494 261.891815,208.478638 262.322601,203.511169 
	C262.661285,199.605789 264.689606,198.596512 268.287872,198.619263 
	C285.617828,198.728790 302.948914,198.666214 320.279572,198.663940 
	C321.779327,198.663742 323.282166,198.594971 324.778198,198.667908 
	C327.868195,198.818542 330.329102,197.661545 330.463837,194.447098 
	C330.619324,190.737427 327.371460,191.113174 324.984070,191.103333 
	C306.820496,191.028366 288.656342,191.077209 270.492859,190.988708 
	C268.340607,190.978226 264.769043,191.729492 264.825134,188.677277 
	C264.884949,185.422318 268.489044,186.744598 270.534821,186.731430 
	C288.531311,186.615585 306.528839,186.667343 324.526031,186.639160 
	C326.337799,186.636322 328.542480,186.798096 328.571777,184.139633 
	C328.599396,181.629944 326.614807,181.376907 324.671387,181.373459 
	C304.841370,181.338333 285.011353,181.326080 265.181396,181.267715 
	C261.719086,181.257523 259.926270,182.634506 259.983063,186.313370 
	C260.101349,193.976974 260.134369,201.643921 260.047821,209.307755 
	C260.011627,212.514511 261.262146,213.750275 264.504486,213.670578 
	C271.166016,213.506836 277.834503,213.625381 285.500153,213.630157 
M356.572144,181.916946 
	C354.408539,181.880341 352.227936,182.005753 350.084015,181.781128 
	C334.950531,180.195602 337.730835,181.590073 337.295959,193.605179 
	C337.148865,197.669144 338.761047,198.778336 342.558136,198.696899 
	C351.212097,198.511337 359.873260,198.644730 368.531372,198.677002 
	C370.706360,198.685104 373.048706,198.559570 373.753998,201.370956 
	C374.824127,205.636551 370.959473,210.385269 366.488892,210.386597 
	C359.496094,210.388641 352.503204,210.388153 345.510498,210.418930 
	C343.249817,210.428894 340.941925,210.353729 338.899261,211.888107 
	C340.208282,214.215668 342.234589,213.547379 343.903137,213.574417 
	C350.395294,213.679688 356.889801,213.651215 363.383453,213.650787 
	C372.578552,213.650192 372.562653,213.635651 375.888123,205.287659 
	C376.940063,202.646942 378.228149,200.097900 380.223541,198.042084 
	C382.374451,195.826050 384.680145,193.760284 386.959290,191.589905 
	C384.963623,189.714462 382.861938,190.271774 380.941803,190.259735 
	C370.785431,190.196045 360.627716,190.291168 350.472260,190.174484 
	C348.186584,190.148209 344.349091,191.178345 344.356842,187.856491 
	C344.365021,184.361893 348.242035,185.746796 350.421539,185.737885 
	C376.395813,185.631729 402.370911,185.603363 428.345123,185.716003 
	C434.584747,185.743057 438.472046,182.289856 443.192993,177.661331 
	C439.623077,177.209137 437.882599,178.623199 436.064056,179.583618 
	C433.972961,180.687958 431.894043,181.526657 429.455658,181.536377 
	C405.488373,181.631912 381.521271,181.779953 356.572144,181.916946 
M411.724609,190.303665 
	C410.996368,190.473312 410.034821,190.040573 409.542938,191.339447 
	C415.191010,194.991974 419.929901,199.539337 422.022736,206.233505 
	C424.343933,213.658173 424.329987,213.662704 431.906036,213.662003 
	C432.903961,213.661911 433.902435,213.679214 434.899750,213.653809 
	C437.667633,213.583328 444.779358,204.947723 444.238281,202.310898 
	C443.978821,201.046478 443.135284,200.205505 441.948120,199.915878 
	C440.348328,199.525604 438.696350,199.122696 437.067566,199.125992 
	C433.799957,199.132614 431.985687,197.822983 432.109863,194.421341 
	C432.231018,191.104065 430.473175,190.135223 427.434479,190.215118 
	C422.448242,190.346207 417.456329,190.261627 411.724609,190.303665 
M318.500061,202.329819 
	C301.261597,202.329819 284.023132,202.329819 265.959595,202.329819 
	C267.813995,206.594315 270.227203,205.869141 272.209015,205.876785 
	C287.518036,205.935852 302.827393,205.918182 318.136627,205.929367 
	C333.112885,205.940292 348.089203,205.983490 363.065308,205.941116 
	C365.141907,205.935257 367.760925,206.510895 368.684814,202.330627 
	C351.935577,202.330627 335.717834,202.330627 318.500061,202.329819 
M214.499649,209.116165 
	C212.365112,213.667938 213.466690,217.618042 217.098007,220.764618 
	C220.307526,223.545700 224.107162,223.694931 227.806213,221.782028 
	C231.620804,219.809357 233.109940,216.361328 232.719742,212.209915 
	C232.297913,207.721588 229.496658,204.851868 225.370193,203.725082 
	C220.808777,202.479523 217.308167,204.541916 214.499649,209.116165 
M408.332611,214.958954 
	C408.207062,206.726410 402.438080,201.584366 395.927338,203.901810 
	C391.444550,205.497421 388.748993,209.680603 389.354950,214.383636 
	C389.916962,218.745850 392.239655,221.764557 396.673920,222.696014 
	C402.068115,223.829117 405.447815,221.684082 408.332611,214.958954 
M345.859039,130.410751 
	C327.993317,128.990204 318.926758,129.488373 314.852997,132.694153 
	C327.633759,132.525742 339.631958,133.480331 352.600281,131.601700 
	C349.943542,131.127914 348.319580,130.838318 345.859039,130.410751 
M199.050247,207.244385 
	C199.552826,203.214386 196.381149,203.706192 194.140823,203.524719 
	C191.374756,203.300644 191.019257,205.522659 191.076202,207.585236 
	C191.140137,209.900986 190.200272,212.851273 193.777908,213.561478 
	C198.413712,214.481750 198.958939,211.455887 199.050247,207.244385 
M437.881104,192.983398 
	C439.841370,194.478561 442.351929,194.644867 443.811279,193.108124 
	C445.882477,190.927078 445.023285,187.945923 444.302887,184.844727 
	C440.639648,186.429321 437.014954,187.428314 437.881104,192.983398 
M191.133362,184.858536 
	C191.596207,186.131134 192.426422,186.937317 193.765015,186.184525 
	C195.363434,185.285599 194.976074,183.578125 194.943619,182.139053 
	C194.897217,180.079819 194.632599,178.049911 191.567337,178.280487 
	C190.597000,180.156097 190.966614,182.152039 191.133362,184.858536 
M492.816956,190.556442 
	C493.557037,187.011963 490.602600,186.658997 488.644440,185.134842 
	C487.851624,186.955307 489.182434,187.583099 489.650391,188.541306 
	C490.190765,189.647720 488.390045,191.129105 490.405487,192.158829 
	C491.001251,191.768646 491.672150,191.329254 492.816956,190.556442 
z"/>
<path fill="#000000" opacity="1.000000" stroke="none" 
	d="
M475.154266,290.298950 
	C475.300720,285.671783 475.614807,281.509308 475.497040,277.359131 
	C475.414032,274.434387 476.305603,272.947754 479.364319,272.967957 
	C487.189087,273.019684 495.035675,272.657745 502.832489,273.133514 
	C509.087219,273.515198 514.605530,276.182739 517.121277,282.435303 
	C519.473816,288.282471 519.674133,294.527863 515.329102,299.428101 
	C512.265564,302.883026 512.862610,305.320404 514.960144,308.567230 
	C516.075378,310.293427 517.747375,311.967316 517.217957,314.976746 
	C512.083923,315.656982 506.834076,315.440979 501.603394,315.077942 
	C499.642365,314.941803 499.274323,312.978180 498.476288,311.536194 
	C497.573578,309.905182 497.544037,307.546906 495.099121,307.036499 
	C491.945099,315.345215 491.945099,315.345215 482.505463,315.328857 
	C475.121033,315.316071 475.031067,315.210449 475.082489,307.752258 
	C475.121521,302.091278 475.120544,296.430023 475.154266,290.298950 
M500.442719,288.134918 
	C498.628082,286.165283 496.445282,285.378571 494.573120,287.633545 
	C493.478882,288.951538 493.809570,291.096771 495.829468,291.673187 
	C498.140533,292.332642 500.660156,292.513733 500.442719,288.134918 
z"/>
<path fill="#000000" opacity="1.000000" stroke="none" 
	d="
M362.027435,315.303864 
	C349.516022,315.204987 350.895416,316.494720 350.836212,304.615204 
	C350.792206,295.789856 350.916382,286.962708 350.781311,278.139191 
	C350.726196,274.538361 352.142242,272.933289 355.754852,272.988251 
	C362.580078,273.092102 369.431641,272.702606 376.228943,273.160583 
	C392.201050,274.236755 401.173981,287.506470 395.946808,301.871674 
	C393.073364,309.768494 385.213898,314.975128 375.510162,315.266541 
	C371.184418,315.396454 366.851776,315.298309 362.027435,315.303864 
M378.839294,292.799072 
	C378.721863,292.152802 378.713715,291.461456 378.468719,290.867828 
	C377.184021,287.755005 374.693573,286.079468 371.467865,286.540161 
	C367.742950,287.072052 369.437988,290.400818 369.078857,292.586456 
	C368.868164,293.868683 368.968170,295.223175 369.080109,296.532196 
	C369.237579,298.373535 368.367889,300.802826 371.109100,301.452423 
	C373.567780,302.035034 375.621948,300.978516 377.281281,299.159943 
	C378.725006,297.577759 378.883514,295.610626 378.839294,292.799072 
z"/>
<path fill="#000000" opacity="1.000000" stroke="none" 
	d="
M249.902176,291.002625 
	C249.923538,286.175903 249.984436,281.848267 249.955521,277.521240 
	C249.934616,274.392395 251.416840,272.978485 254.528549,273.006165 
	C261.850708,273.071289 269.188416,272.782227 276.491638,273.168732 
	C282.942261,273.510132 288.604706,275.969543 291.436493,282.327393 
	C294.421570,289.029480 293.386688,295.426971 288.637177,300.949036 
	C286.867737,303.006287 286.851776,304.491760 288.164520,306.645081 
	C289.596100,308.993225 291.596588,311.144928 291.744843,314.483582 
	C287.377045,316.088654 282.891144,314.915588 278.539917,315.305511 
	C272.214966,315.872345 274.016998,308.130402 269.663513,306.567383 
	C269.226929,306.957794 268.736206,307.202667 268.552917,307.592194 
	C267.424805,309.989777 269.666138,314.151398 265.957367,314.912201 
	C261.291656,315.869324 256.332275,315.866425 251.603745,314.787567 
	C249.673950,314.347260 249.960999,312.102509 249.947449,310.476929 
	C249.894714,304.152283 249.912003,297.827026 249.902176,291.002625 
M274.356445,292.014130 
	C276.470398,290.084534 276.355865,288.237976 273.872986,286.871674 
	C272.401550,286.061981 270.568420,285.914276 269.143341,286.963409 
	C267.756592,287.984314 267.925720,289.766296 268.492950,291.087585 
	C269.559021,293.570953 271.769379,292.615753 274.356445,292.014130 
z"/>
<path fill="#000000" opacity="1.000000" stroke="none" 
	d="
M203.414673,272.130432 
	C206.672623,272.222931 209.547684,272.043823 212.302032,272.537811 
	C225.124649,274.837433 231.907669,283.184875 231.153305,295.446747 
	C230.410950,307.513885 222.412094,315.278107 209.731323,316.234375 
	C205.368729,316.563385 201.069580,316.112122 196.905518,314.820129 
	C187.901901,312.026672 182.838959,304.800079 182.711899,294.768585 
	C182.574890,283.954407 186.972473,277.050232 196.201660,273.841919 
	C198.389343,273.081451 200.714355,272.715973 203.414673,272.130432 
M201.227707,296.870575 
	C202.063370,300.217529 204.081512,302.149200 207.642456,301.589661 
	C210.832596,301.088379 212.365250,298.853485 212.762711,295.729248 
	C213.399780,290.721802 210.812698,286.633209 206.854813,286.465240 
	C203.193344,286.309845 201.076172,289.224792 200.981323,294.578125 
	C200.972610,295.071045 201.062241,295.565765 201.227707,296.870575 
z"/>
<path fill="#000000" opacity="1.000000" stroke="none" 
	d="
M437.935760,286.367828 
	C436.918945,286.464691 436.279510,286.553650 435.640076,286.642578 
	C437.909882,288.321014 440.475433,287.880096 442.928223,287.890961 
	C453.805389,287.939209 453.996185,288.022827 453.960266,294.531433 
	C453.928406,300.304657 453.749298,300.394714 442.710205,300.334076 
	C440.397186,300.321381 438.084045,300.332245 435.770966,300.332245 
	C435.748840,300.750824 435.726746,301.169434 435.704620,301.588013 
	C440.088562,301.588013 444.485992,301.800903 448.852356,301.523865 
	C452.670044,301.281647 455.347443,301.502563 455.367401,306.471954 
	C455.401703,315.025269 455.450562,315.279755 449.297516,315.302429 
	C440.132721,315.336212 430.964050,315.156342 421.804443,315.375854 
	C417.613953,315.476288 415.732025,314.248901 415.827209,309.753448 
	C416.049347,299.260132 415.983093,288.758331 415.871826,278.261688 
	C415.831085,274.421387 417.401672,272.872528 421.232910,272.921478 
	C430.896149,273.044983 440.564423,273.095947 450.225830,272.915741 
	C456.159271,272.805115 455.157410,276.837708 455.296295,280.439087 
	C455.433990,284.009338 454.978241,286.733643 450.307434,286.427948 
	C446.324921,286.167297 442.312378,286.364990 437.935760,286.367828 
z"/>
<path fill="#000000" opacity="1.000000" stroke="none" 
	d="
M153.566208,274.169067 
	C159.411148,276.615936 163.254898,280.334473 165.111023,287.110046 
	C157.802597,287.523621 151.516678,293.029297 144.443802,287.387115 
	C142.027603,285.459717 139.331635,286.364929 137.438614,288.791351 
	C135.287506,291.548645 135.616669,297.729126 138.023285,299.973724 
	C140.462372,302.248596 143.129974,302.238953 145.686768,300.212372 
	C147.192322,299.019043 148.099686,296.792084 150.558182,297.396637 
	C154.903030,298.465057 159.548264,298.415833 163.608566,300.447571 
	C166.026398,301.657440 164.548950,303.592010 163.709900,305.152435 
	C158.986298,313.937073 147.221329,318.224884 135.337112,315.530975 
	C120.094688,312.075836 113.062767,297.624390 119.822289,283.646118 
	C123.991333,275.024780 135.789551,270.193939 147.456329,272.407074 
	C149.406693,272.777008 151.296356,273.466919 153.566208,274.169067 
z"/>
<path fill="#000000" opacity="1.000000" stroke="none" 
	d="
M330.215485,311.740906 
	C330.052826,314.231110 328.925659,315.220459 326.954102,315.232819 
	C323.122375,315.256866 319.290314,315.253265 315.458527,315.233368 
	C312.783508,315.219513 312.091827,313.402740 312.086029,311.215027 
	C312.056000,299.883911 312.077087,288.552612 312.093475,277.221405 
	C312.097626,274.346497 313.561096,272.935150 316.445953,273.013062 
	C316.778687,273.022064 317.112274,272.994568 317.445465,272.994019 
	C332.616760,272.969238 330.022888,272.011200 330.215668,285.270447 
	C330.341644,293.934296 330.241913,302.601379 330.215485,311.740906 
z"/>
<path fill="#000000" opacity="1.000000" stroke="none" 
	d="
M515.856567,318.045532 
	C517.473389,318.050629 518.649719,317.959229 519.795898,318.104889 
	C521.976440,318.382050 523.802490,319.444214 523.653381,321.840790 
	C523.513611,324.086823 521.355347,323.970459 519.765381,323.970886 
	C505.326996,323.975006 490.888397,323.937103 476.450562,323.821686 
	C474.477905,323.805939 472.036224,323.572449 472.095520,320.842773 
	C472.160889,317.833008 474.655334,318.520996 476.602905,318.501007 
	C489.536255,318.368378 502.469299,318.207672 515.856567,318.045532 
z"/>
<path fill="#000000" opacity="1.000000" stroke="none" 
	d="
M269.295410,318.385010 
	C277.686218,318.593231 285.627350,319.257874 293.587280,318.328125 
	C295.543182,318.099640 297.459961,318.949066 297.403503,321.260223 
	C297.345032,323.653870 295.141205,323.329346 293.584320,323.327637 
	C279.631683,323.312225 265.678955,323.247040 251.726776,323.131989 
	C249.972244,323.117554 247.495880,323.289764 247.594604,320.739349 
	C247.697311,318.085846 250.228775,318.817200 251.918045,318.770111 
	C257.561493,318.612671 263.207764,318.556305 269.295410,318.385010 
z"/>
<path fill="#000000" opacity="1.000000" stroke="none" 
	d="
M423.126526,323.013275 
	C419.849182,322.398315 416.232544,324.365814 414.428711,320.698792 
	C414.780487,319.176422 415.750366,318.957733 416.783081,318.944336 
	C429.395325,318.780518 442.008026,318.651703 454.619843,318.460907 
	C456.529144,318.432037 458.596741,318.217194 458.760681,320.764893 
	C458.917969,323.209320 456.817383,323.670380 454.977295,323.820251 
	C449.658386,324.253326 444.366089,323.684235 439.057617,323.311737 
	C433.925323,322.951569 428.757416,323.099182 423.126526,323.013275 
z"/>
<path fill="#000000" opacity="1.000000" stroke="none" 
	d="
M385.123596,321.451202 
	C376.246674,324.413422 352.905151,323.586456 349.318756,319.805511 
	C364.561066,318.275696 380.038147,321.235840 394.111053,313.523132 
	C392.653168,317.869354 388.920258,319.415131 385.123596,321.451202 
z"/>
<path fill="#000000" opacity="1.000000" stroke="none" 
	d="
M157.387238,320.482849 
	C143.764359,327.761414 123.854698,323.924713 119.029457,312.109467 
	C134.245605,323.294067 148.999023,321.739227 164.242615,312.975922 
	C163.618729,317.576050 160.646164,318.927765 157.387238,320.482849 
z"/>
<path fill="#000000" opacity="1.000000" stroke="none" 
	d="
M218.551132,317.697479 
	C221.884933,316.224060 224.845627,314.880737 227.946976,313.473602 
	C227.648972,322.770935 203.697723,328.037537 194.342651,320.502167 
	C202.985352,320.282074 210.765640,320.256073 218.551132,317.697479 
z"/>
<path fill="#000000" opacity="1.000000" stroke="none" 
	d="
M327.704224,323.231140 
	C323.264465,323.145416 319.283203,323.148499 315.313293,322.938171 
	C313.479736,322.840973 310.591675,323.421112 310.710510,320.596710 
	C310.814941,318.113373 313.508179,318.931732 315.188782,318.901672 
	C319.495972,318.824707 323.806549,318.857880 328.114319,318.931610 
	C329.830109,318.960968 332.327881,318.365417 332.361969,321.003296 
	C332.395813,323.623596 329.874146,323.014954 327.704224,323.231140 
z"/>
<path fill="#000000" opacity="1.000000" stroke="none" 
	d="
M271.835022,170.850861 
	C268.146698,167.756989 268.864899,164.784225 271.515259,162.018082 
	C277.622681,155.643875 283.860535,149.394791 289.982361,143.034195 
	C291.751526,141.196030 293.808807,140.645920 296.273041,140.660522 
	C306.935333,140.723755 317.598419,140.642975 328.260742,140.704193 
	C333.568542,140.734650 335.213379,142.308487 335.305573,147.482803 
	C335.412445,153.478394 335.358307,159.477676 335.310913,165.474869 
	C335.283783,168.903275 333.897583,171.381195 330.112885,171.490677 
	C310.804565,172.049194 291.494781,172.486145 271.835022,170.850861 
z"/>
<path fill="#000000" opacity="1.000000" stroke="none" 
	d="
M394.101074,171.431610 
	C376.903961,171.476227 360.107086,172.515778 343.310425,171.417770 
	C340.019714,171.202652 338.298737,169.347931 338.209503,166.383972 
	C338.004272,159.566696 338.006531,152.734848 338.205780,145.917130 
	C338.310364,142.338486 340.567139,140.667618 344.183228,140.681900 
	C354.673981,140.723312 365.165527,140.741226 375.655701,140.650223 
	C378.446899,140.626022 380.404663,141.784058 382.020416,143.894135 
	C386.777588,150.106781 391.630096,156.247787 396.307159,162.519867 
	C399.325836,166.567947 398.863342,168.357452 394.101074,171.431610 
z"/>
</svg>