<?xml version="1.0" standalone="no"?>
<!DOCTYPE svg PUBLIC "-//W3C//DTD SVG 20010904//EN"
 "http://www.w3.org/TR/2001/REC-SVG-20010904/DTD/svg10.dtd">
<svg version="1.0" xmlns="http://www.w3.org/2000/svg"
 width="300.000000pt" height="193.000000pt" viewBox="0 0 300.000000 193.000000"
 preserveAspectRatio="xMidYMid meet">
<metadata>
Created by potrace 1.10, written by Peter Selinger 2001-2011
</metadata>
<g transform="translate(0.000000,193.000000) scale(0.100000,-0.100000)"
fill="#000000" stroke="none">
<path d="M183 1860 c0 -41 2 -58 4 -37 2 20 2 54 0 75 -2 20 -4 3 -4 -38z"/>
<path d="M532 1858 l-2 -78 -252 0 c-138 0 -249 -2 -246 -5 3 -3 116 -6 252
-6 l246 0 0 -259 0 -260 -170 0 -169 0 -4 78 -3 77 -2 -77 -2 -77 -77 -4 -78
-3 77 -2 77 -2 4 -77 3 -78 2 78 2 77 170 0 169 0 4 -62 3 -63 2 63 2 62 90 0
c50 0 90 3 90 8 0 4 -40 6 -90 4 l-89 -3 0 260 0 260 336 0 c184 0 338 3 341
6 3 3 -148 5 -336 5 l-341 0 -4 78 -3 77 -2 -77z"/>
<path d="M713 1870 c0 -36 2 -50 4 -32 2 17 2 47 0 65 -2 17 -4 3 -4 -33z"/>
<path d="M883 1860 c0 -41 2 -58 4 -37 2 20 2 54 0 75 -2 20 -4 3 -4 -38z"/>
<path d="M1063 1865 c0 -38 2 -53 4 -32 2 20 2 52 0 70 -2 17 -4 1 -4 -38z"/>
<path d="M1233 1870 c0 -36 2 -50 4 -32 2 17 2 47 0 65 -2 17 -4 3 -4 -33z"/>
<path d="M1413 1860 c0 -41 2 -58 4 -37 2 20 2 54 0 75 -2 20 -4 3 -4 -38z"/>
<path d="M1762 1858 l-2 -78 -252 0 c-138 0 -249 -2 -246 -5 3 -3 116 -6 252
-6 l246 0 0 -196 c0 -108 3 -194 6 -190 3 3 5 91 5 196 l-1 190 615 -2 c338
-1 615 1 615 6 0 4 -277 7 -615 7 l-614 0 -4 78 -3 77 -2 -77z"/>
<path d="M1943 1865 c0 -38 2 -53 4 -32 2 20 2 52 0 70 -2 17 -4 1 -4 -38z"/>
<path d="M2113 1865 c0 -38 2 -53 4 -32 2 20 2 52 0 70 -2 17 -4 1 -4 -38z"/>
<path d="M2293 1860 c0 -41 2 -58 4 -37 2 20 2 54 0 75 -2 20 -4 3 -4 -38z"/>
<path d="M2643 1860 c0 -41 2 -58 4 -37 2 20 2 54 0 75 -2 20 -4 3 -4 -38z"/>
<path d="M2993 1865 c0 -38 2 -53 4 -32 2 20 2 52 0 70 -2 17 -4 1 -4 -38z"/>
<path d="M183 1685 c0 -38 2 -53 4 -32 2 20 2 52 0 70 -2 17 -4 1 -4 -38z"/>
<path d="M883 1685 c0 -38 2 -53 4 -32 2 20 2 52 0 70 -2 17 -4 1 -4 -38z"/>
<path d="M1943 1690 c0 -36 2 -50 4 -32 2 17 2 47 0 65 -2 17 -4 3 -4 -33z"/>
<path d="M2293 1685 c0 -38 2 -53 4 -32 2 20 2 52 0 70 -2 17 -4 1 -4 -38z"/>
<path d="M2643 1685 c0 -38 2 -53 4 -32 2 20 2 52 0 70 -2 17 -4 1 -4 -38z"/>
<path d="M1169 1723 c-193 -39 -335 -233 -315 -430 7 -70 35 -148 43 -124 3 7
0 37 -7 66 -54 226 97 449 326 480 156 21 319 -71 390 -219 19 -39 34 -78 34
-88 0 -9 5 -20 10 -23 22 -14 8 56 -25 122 -85 170 -265 255 -456 216z"/>
<path d="M2993 1685 c0 -33 2 -45 4 -27 2 18 2 45 0 60 -2 15 -4 0 -4 -33z"/>
<path d="M178 1603 c-2 -5 -1 -44 2 -88 l5 -80 5 83 c3 46 2 86 -2 88 -4 2 -8
1 -10 -3z"/>
<path d="M2288 1603 c-2 -5 0 -44 3 -88 l5 -80 2 88 c2 78 -1 101 -10 80z"/>
<path d="M2640 1607 c-1 -4 -1 -47 -1 -97 0 -199 1 -243 6 -238 7 7 8 328 1
335 -3 4 -6 3 -6 0z"/>
<path d="M238 1593 c17 -2 47 -2 65 0 17 2 3 4 -33 4 -36 0 -50 -2 -32 -4z"/>
<path d="M418 1593 c17 -2 47 -2 65 0 17 2 3 4 -33 4 -36 0 -50 -2 -32 -4z"/>
<path d="M598 1593 c17 -2 47 -2 65 0 17 2 3 4 -33 4 -36 0 -50 -2 -32 -4z"/>
<path d="M767 1593 c18 -2 50 -2 70 0 21 2 7 4 -32 4 -38 0 -55 -2 -38 -4z"/>
<path d="M1658 1593 c18 -2 45 -2 60 0 15 2 0 4 -33 4 -33 0 -45 -2 -27 -4z"/>
<path d="M1818 1593 c17 -2 47 -2 65 0 17 2 3 4 -33 4 -36 0 -50 -2 -32 -4z"/>
<path d="M1998 1593 c17 -2 47 -2 65 0 17 2 3 4 -33 4 -36 0 -50 -2 -32 -4z"/>
<path d="M2167 1593 c18 -2 50 -2 70 0 21 2 7 4 -32 4 -38 0 -55 -2 -38 -4z"/>
<path d="M2347 1593 c18 -2 50 -2 70 0 21 2 7 4 -32 4 -38 0 -55 -2 -38 -4z"/>
<path d="M2528 1593 c18 -2 45 -2 60 0 15 2 0 4 -33 4 -33 0 -45 -2 -27 -4z"/>
<path d="M2698 1593 c17 -2 47 -2 65 0 17 2 3 4 -33 4 -36 0 -50 -2 -32 -4z"/>
<path d="M2867 1593 c18 -2 50 -2 70 0 21 2 7 4 -32 4 -38 0 -55 -2 -38 -4z"/>
<path d="M1943 1510 c0 -36 2 -50 4 -32 2 17 2 47 0 65 -2 17 -4 3 -4 -33z"/>
<path d="M2993 1510 c0 -36 2 -50 4 -32 2 17 2 47 0 65 -2 17 -4 3 -4 -33z"/>
<path d="M68 1423 c17 -2 47 -2 65 0 17 2 3 4 -33 4 -36 0 -50 -2 -32 -4z"/>
<path d="M238 1423 c17 -2 47 -2 65 0 17 2 3 4 -33 4 -36 0 -50 -2 -32 -4z"/>
<path d="M418 1423 c17 -2 47 -2 65 0 17 2 3 4 -33 4 -36 0 -50 -2 -32 -4z"/>
<path d="M588 1423 c17 -2 47 -2 65 0 17 2 3 4 -33 4 -36 0 -50 -2 -32 -4z"/>
<path d="M1817 1423 c18 -2 50 -2 70 0 21 2 7 4 -32 4 -38 0 -55 -2 -38 -4z"/>
<path d="M1998 1423 c17 -2 47 -2 65 0 17 2 3 4 -33 4 -36 0 -50 -2 -32 -4z"/>
<path d="M2178 1423 c17 -2 47 -2 65 0 17 2 3 4 -33 4 -36 0 -50 -2 -32 -4z"/>
<path d="M2288 1340 l3 -90 -162 1 c-89 0 -164 -3 -167 -6 -3 -3 69 -5 161 -5
l166 0 4 -32 4 -33 1 33 2 32 170 0 169 0 4 -92 3 -93 2 93 2 92 167 0 c91 0
164 2 161 5 -3 3 -156 5 -341 5 l-337 0 0 90 c0 50 -3 90 -7 90 -5 0 -7 -40
-5 -90z"/>
<path d="M2347 1423 c18 -2 50 -2 70 0 21 2 7 4 -32 4 -38 0 -55 -2 -38 -4z"/>
<path d="M2528 1423 c17 -2 47 -2 65 0 17 2 3 4 -33 4 -36 0 -50 -2 -32 -4z"/>
<path d="M2698 1423 c17 -2 47 -2 65 0 17 2 3 4 -33 4 -36 0 -50 -2 -32 -4z"/>
<path d="M2878 1423 c18 -2 45 -2 60 0 15 2 0 4 -33 4 -33 0 -45 -2 -27 -4z"/>
<path d="M1282 1368 c3 -30 0 -32 -42 -44 -42 -12 -40 -13 50 -8 52 3 110 7
128 10 19 3 32 1 32 -6 0 -5 -22 -10 -49 -10 -48 0 -52 -2 -125 -74 l-75 -73
-128 -6 c-70 -3 -145 -11 -165 -17 l-38 -11 0 -103 c0 -109 3 -116 49 -116 10
0 23 -11 29 -25 l12 -25 -70 0 c-56 0 -70 3 -70 15 0 8 4 15 9 15 5 0 12 7 15
16 5 12 1 14 -17 9 -21 -6 -21 -6 -3 9 19 16 19 16 -5 16 l-24 0 25 21 c24 20
24 20 3 14 -27 -8 -30 2 -5 22 15 13 15 14 -8 8 l-25 -6 25 16 c14 8 18 15 10
14 -38 -4 -44 0 -26 20 15 17 15 19 1 25 -9 3 -13 10 -10 16 3 5 2 10 -4 10
-5 0 -10 8 -10 18 -1 34 -13 82 -22 82 -9 0 -11 -7 -11 -52 -1 -16 -4 -28 -9
-28 -5 0 -6 -7 -3 -15 4 -9 0 -15 -7 -15 -11 0 -11 -3 1 -11 12 -9 10 -10 -8
-6 -23 6 -24 5 -5 -15 13 -15 15 -22 5 -25 -6 -3 -9 -10 -5 -16 11 -18 10 -68
-2 -64 -5 2 -11 14 -13 28 -7 72 -14 110 -18 107 -4 -4 -15 -87 -18 -133 0
-11 -7 -20 -15 -20 -18 0 -24 37 -8 47 7 5 3 8 -11 8 -21 0 -22 1 -8 16 20 20
20 28 1 20 -8 -3 -15 -1 -15 4 0 6 5 10 11 10 7 0 5 10 -5 25 -9 13 -16 34
-16 45 0 12 -4 18 -10 15 -6 -4 -10 -14 -8 -23 1 -10 -4 -28 -11 -41 -7 -13
-9 -26 -5 -30 19 -13 15 -33 -6 -26 -23 7 -28 -10 -5 -19 21 -8 19 -27 -2 -19
-15 5 -14 3 2 -10 18 -15 19 -16 2 -17 -12 0 -15 -4 -11 -12 4 -7 6 -34 5 -60
l-2 -48 940 0 941 0 0 35 c0 19 4 35 9 35 5 0 12 7 15 16 5 12 1 14 -17 9 -21
-6 -21 -6 -3 9 19 16 19 16 -5 16 l-24 0 25 21 c24 20 24 20 3 14 -27 -8 -30
2 -5 22 15 13 15 14 -8 8 l-25 -6 25 16 c14 8 18 15 10 14 -38 -4 -44 0 -26
20 17 18 16 20 -5 26 -17 6 -19 9 -8 16 11 7 10 9 -6 9 -14 0 -16 3 -8 11 8 8
7 18 -2 36 -8 14 -11 32 -8 39 3 8 1 14 -5 14 -13 0 -19 -19 -17 -52 1 -16 -2
-28 -6 -28 -5 0 -6 -7 -3 -15 4 -8 1 -15 -6 -15 -6 0 -8 -5 -4 -12 5 -8 2 -9
-11 -4 -18 6 -18 6 1 -15 14 -16 15 -23 6 -26 -6 -3 -9 -10 -5 -16 10 -16 11
-67 1 -67 -13 0 -21 23 -24 64 -1 23 -2 50 -3 60 -1 11 -4 16 -8 12 -7 -7 -12
-46 -15 -116 -1 -23 -14 -39 -30 -40 -4 0 -6 14 -4 30 2 21 -1 30 -11 30 -12
0 -12 3 1 16 20 20 20 28 1 20 -8 -3 -15 -1 -15 3 0 5 6 12 13 14 9 4 9 6 0 6
-7 1 -16 19 -19 42 -8 47 -22 40 -26 -13 -2 -20 -6 -34 -10 -31 -5 2 -8 -1 -8
-6 0 -6 4 -11 8 -11 5 0 9 -7 9 -15 0 -10 -6 -13 -19 -9 -22 6 -25 -11 -3 -20
21 -8 19 -27 -2 -19 -15 5 -14 3 2 -10 20 -16 20 -16 0 -17 -13 0 -16 -3 -9
-10 6 -6 9 -24 6 -40 l-4 -30 -94 0 -94 0 12 25 c10 22 17 25 68 25 34 0 62 5
67 13 12 14 15 167 5 184 -4 6 -40 23 -81 36 -63 22 -85 35 -145 94 -64 61
-76 69 -121 74 -27 4 -3 5 55 3 68 -2 96 0 78 5 -49 16 -226 31 -358 31 -75 0
-131 4 -135 10 -9 15 -25 12 -25 -5 0 -22 -9 -19 -40 15 -36 39 -51 38 -48 -2z
m408 -48 c0 -6 -45 -10 -115 -10 -70 0 -115 4 -115 10 0 6 45 10 115 10 70 0
115 -4 115 -10z m120 -43 c0 -7 27 -35 60 -63 48 -40 56 -50 40 -52 -37 -6
-20 -22 24 -22 50 0 108 -18 100 -31 -3 -5 -182 -9 -415 -9 l-409 0 0 22 c0
13 27 50 68 94 l67 72 233 1 c185 1 232 -2 232 -12z m-635 -135 c11 -4 20 -14
20 -22 0 -12 -19 -15 -103 -16 -56 0 -102 -5 -102 -9 0 -5 45 -8 100 -7 l100
2 0 -80 c0 -72 -2 -80 -19 -80 -13 0 -20 9 -25 30 -15 76 -113 107 -174 55
-17 -14 -42 -25 -56 -25 -21 0 -26 5 -26 25 0 18 5 25 20 25 16 0 20 7 20 34
0 19 -6 36 -12 39 -27 9 1 17 93 25 116 11 139 12 164 4z m905 -41 c0 -5 -11
-16 -25 -25 -20 -13 -58 -16 -235 -16 -149 0 -210 -3 -210 -11 0 -8 35 -10
119 -7 117 4 119 4 92 -13 -34 -21 -61 -57 -61 -81 0 -16 -10 -18 -90 -18 -53
0 -90 4 -90 10 0 6 33 10 80 10 44 0 80 4 80 9 0 5 3 16 6 25 5 14 -6 16 -80
16 l-86 0 0 45 0 45 228 0 c129 0 233 4 242 10 19 12 30 13 30 1z m-522 -28
c3 -10 -33 -13 -157 -13 -101 0 -161 -4 -161 -10 0 -6 60 -10 160 -10 153 0
160 -1 160 -20 0 -19 -7 -20 -165 -20 l-165 0 0 -25 0 -25 165 0 c103 0 165
-4 165 -10 0 -6 -65 -10 -175 -10 l-175 0 0 80 0 80 172 -2 c126 -2 172 -6
176 -15z m532 -28 c0 -18 -5 -25 -20 -25 -35 0 -24 45 13 49 4 1 7 -10 7 -24z
m-99 -5 c32 0 39 -3 39 -20 0 -16 7 -20 31 -20 28 0 30 -2 27 -32 -3 -32 -5
-33 -53 -36 -50 -2 -50 -2 -70 40 -11 24 -30 48 -43 54 -37 18 -39 27 -3 20
18 -3 51 -6 72 -6z m-1217 -122 l1 -53 -86 -3 c-93 -3 -117 8 -104 47 6 19 8
19 28 6 20 -12 27 -12 69 8 26 12 53 32 59 45 18 33 31 13 33 -50z m954 60
c-4 -10 -61 -14 -234 -16 -231 -2 -260 0 -249 18 10 16 488 13 483 -2z m649
-56 c5 -48 4 -51 -18 -57 -13 -3 -58 -5 -99 -3 -63 3 -75 6 -78 21 -2 10 -1
25 2 33 5 13 8 13 29 0 21 -14 27 -14 66 6 23 11 49 32 58 45 21 31 32 19 40
-45z m-1437 33 c0 -20 -5 -25 -25 -25 -20 0 -25 5 -25 25 0 20 5 25 25 25 20
0 25 -5 25 -25z m138 13 c19 -19 15 -66 -7 -78 -11 -5 -24 -10 -30 -10 -16 0
-51 38 -51 54 0 37 61 61 88 34z m832 -8 c15 -28 4 -59 -26 -72 -19 -9 -28 -8
-44 7 -22 20 -26 55 -8 73 20 20 66 15 78 -8z m-140 -69 c5 -11 10 -22 10 -25
0 -3 -146 -6 -325 -6 -179 0 -325 2 -325 5 0 3 6 14 12 25 12 19 24 20 315 20
289 0 303 -1 313 -19z"/>
<path d="M1311 1210 c-34 -39 -50 -65 -44 -71 5 -5 72 -8 154 -7 l144 3 0 65
0 65 -100 3 -100 3 -54 -61z m169 11 c-44 -59 -59 -75 -64 -70 -3 3 8 21 24
40 16 19 29 38 30 44 0 5 -13 -6 -30 -25 -16 -19 -29 -31 -30 -26 0 5 -11 -1
-25 -14 -14 -13 -28 -20 -32 -16 -5 5 13 27 40 51 34 32 55 43 77 43 l29 -1
-19 -26z m48 -23 c-2 -15 -11 -24 -25 -26 -26 -4 -28 0 -11 28 17 27 40 26 36
-2z"/>
<path d="M1590 1200 l0 -70 130 0 c156 0 161 4 99 85 l-44 55 -92 0 -93 0 0
-70z m170 39 c0 -3 -17 -26 -38 -50 -32 -36 -40 -40 -45 -25 -4 9 -3 15 2 12
8 -6 42 28 55 54 4 8 -6 -1 -23 -20 -17 -19 -31 -31 -31 -26 0 5 -11 -1 -25
-14 -16 -15 -25 -19 -25 -10 0 23 81 90 106 88 13 -1 24 -5 24 -9z"/>
<path d="M1943 1335 c0 -38 2 -53 4 -32 2 20 2 52 0 70 -2 17 -4 1 -4 -38z"/>
<path d="M2113 1335 c0 -33 2 -45 4 -27 2 18 2 45 0 60 -2 15 -4 0 -4 -33z"/>
<path d="M2993 1330 c0 -36 2 -50 4 -32 2 17 2 47 0 65 -2 17 -4 3 -4 -33z"/>
<path d="M2993 1160 c0 -36 2 -50 4 -32 2 17 2 47 0 65 -2 17 -4 3 -4 -33z"/>
<path d="M182 978 l-2 -77 -77 -3 -78 -3 85 -5 c47 -3 153 -3 235 0 l150 6
-152 2 -152 2 -4 78 -3 77 -2 -77z"/>
<path d="M2642 978 l-2 -77 -77 -4 -78 -3 77 -2 77 -2 4 -77 3 -78 2 77 2 77
93 4 92 3 -92 2 -92 2 -4 78 -3 77 -2 -77z"/>
<path d="M2993 980 c0 -36 2 -50 4 -32 2 17 2 47 0 65 -2 17 -4 3 -4 -33z"/>
<path d="M2873 893 c20 -2 54 -2 75 0 20 2 3 4 -38 4 -41 0 -58 -2 -37 -4z"/>
<path d="M183 805 c0 -38 2 -53 4 -32 2 20 2 52 0 70 -2 17 -4 1 -4 -38z"/>
<path d="M2993 810 c0 -36 2 -50 4 -32 2 17 2 47 0 65 -2 17 -4 3 -4 -33z"/>
<path d="M2641 725 c-1 -5 -2 -47 -1 -92 l1 -82 -78 -4 -78 -3 77 -2 77 -2 4
-77 3 -78 2 77 2 78 168 3 167 3 -167 2 -167 2 -4 93 c-1 50 -4 88 -6 82z"/>
<path d="M248 713 c18 -2 45 -2 60 0 15 2 0 4 -33 4 -33 0 -45 -2 -27 -4z"/>
<path d="M2708 713 c18 -2 45 -2 60 0 15 2 0 4 -33 4 -33 0 -45 -2 -27 -4z"/>
<path d="M182 628 l-2 -77 -77 -4 -78 -3 78 -2 77 -2 0 -85 0 -84 -77 -4 -78
-3 78 -2 78 -2 -2 -88 c-1 -48 2 -85 6 -82 4 3 7 42 6 88 l-2 82 170 0 171 0
0 -162 c0 -89 2 -159 5 -156 7 7 8 378 1 386 -3 3 -6 -9 -6 -26 l0 -31 -170 0
-170 -1 0 85 0 84 158 4 157 3 -157 2 -157 2 -4 78 -3 77 -2 -77z"/>
<path d="M2993 635 c0 -38 2 -53 4 -32 2 20 2 52 0 70 -2 17 -4 1 -4 -38z"/>
<path d="M579 621 c-38 -38 -39 -87 -4 -129 29 -35 73 -46 126 -32 36 10 73
45 64 61 -6 9 -75 17 -75 8 0 -11 -29 -19 -45 -13 -9 4 -15 19 -15 35 0 32 19
46 48 33 33 -14 93 1 85 21 -9 25 -58 45 -108 45 -38 0 -52 -5 -76 -29z"/>
<path d="M885 625 c-30 -29 -34 -97 -10 -132 22 -31 87 -47 129 -33 50 16 71
45 71 97 0 64 -35 93 -111 93 -45 0 -59 -4 -79 -25z m110 -69 c0 -36 -26 -56
-49 -37 -16 14 -22 52 -9 65 4 4 19 6 33 4 20 -2 25 -8 25 -32z"/>
<path d="M1170 555 l0 -95 40 0 c33 0 40 3 40 20 0 11 6 20 14 20 7 0 16 -9
19 -20 4 -15 14 -20 41 -20 39 0 43 5 21 33 -12 16 -11 21 6 38 26 26 24 65
-6 94 -21 22 -33 25 -100 25 l-75 0 0 -95z m114 39 c30 -12 12 -44 -25 -44 -5
0 -9 11 -9 25 0 26 7 29 34 19z"/>
<path d="M1465 555 l0 -95 38 0 37 0 0 95 0 95 -37 0 -38 0 0 -95z"/>
<path d="M1645 555 l0 -95 68 0 c40 0 80 6 96 15 60 31 60 129 1 160 -17 9
-56 15 -97 15 l-68 0 0 -95z m133 7 c4 -28 -14 -52 -39 -52 -16 0 -19 8 -19
41 0 38 1 40 28 37 19 -2 28 -9 30 -26z"/>
<path d="M1950 555 l0 -95 90 0 c89 0 90 0 90 25 0 24 -3 25 -55 25 -30 0 -55
5 -55 10 0 6 23 10 50 10 47 0 50 2 50 26 0 24 -3 25 -45 23 -25 -2 -44 1 -42
6 1 6 23 9 50 9 46 -2 47 -1 47 27 l0 29 -90 0 -90 0 0 -95z"/>
<path d="M2230 555 l0 -95 41 0 c36 0 41 2 36 20 -3 13 0 20 10 20 8 0 17 -9
20 -20 4 -16 14 -20 44 -20 43 0 47 5 22 32 -11 13 -14 22 -7 26 21 13 34 52
28 77 -10 41 -40 55 -121 55 l-73 0 0 -95z m114 39 c23 -9 20 -31 -5 -39 -25
-8 -44 7 -36 29 7 17 16 19 41 10z"/>
<path d="M2993 460 c0 -36 2 -50 4 -32 2 17 2 47 0 65 -2 17 -4 3 -4 -33z"/>
<path d="M772 485 c-7 -15 -28 -33 -47 -41 -65 -27 -126 -15 -172 33 l-26 28
16 -32 c42 -81 206 -79 238 4 13 34 5 40 -9 8z"/>
<path d="M840 493 c0 -6 9 -22 21 -36 24 -31 88 -51 135 -42 34 6 94 49 94 67
0 5 -14 -2 -30 -16 -58 -48 -157 -43 -199 11 -12 14 -21 21 -21 16z"/>
<path d="M1860 492 c0 -7 -15 -21 -32 -32 -26 -16 -51 -20 -120 -20 -52 0 -88
-4 -88 -10 0 -17 167 -12 200 5 30 15 56 52 46 63 -3 3 -6 0 -6 -6z"/>
<path d="M1150 430 c0 -6 49 -10 126 -10 81 0 123 4 119 10 -4 6 -57 10 -126
10 -73 0 -119 -4 -119 -10z"/>
<path d="M1440 430 c0 -6 27 -10 60 -10 33 0 60 4 60 10 0 6 -27 10 -60 10
-33 0 -60 -4 -60 -10z"/>
<path d="M1932 429 c2 -6 7 -10 11 -10 4 1 52 1 107 1 60 0 100 4 100 10 0 6
-44 10 -111 10 -74 0 -109 -4 -107 -11z"/>
<path d="M2210 430 c0 -6 49 -10 126 -10 81 0 123 4 119 10 -4 6 -57 10 -126
10 -73 0 -119 -4 -119 -10z"/>
<path d="M805 370 l-80 -6 88 -2 c57 -1 86 2 82 8 -3 6 -7 9 -8 8 -1 -1 -38
-5 -82 -8z"/>
<path d="M1053 368 c-2 -5 35 -7 84 -7 90 2 83 6 -20 11 -33 2 -61 0 -64 -4z"/>
<path d="M1335 369 c-58 -4 -35 -5 80 -6 153 0 173 3 55 9 -30 2 -91 0 -135
-3z"/>
<path d="M1760 368 c0 -5 37 -7 83 -7 85 2 75 6 -26 11 -31 2 -57 0 -57 -4z"/>
<path d="M2480 370 c-131 -5 -97 -6 164 -8 181 -1 327 0 324 3 -7 8 -306 11
-488 5z"/>
<path d="M587 363 c18 -2 50 -2 70 0 21 2 7 4 -32 4 -38 0 -55 -2 -38 -4z"/>
<path d="M937 363 c18 -2 50 -2 70 0 21 2 7 4 -32 4 -38 0 -55 -2 -38 -4z"/>
<path d="M1608 363 c17 -2 47 -2 65 0 17 2 3 4 -33 4 -36 0 -50 -2 -32 -4z"/>
<path d="M2167 363 c18 -2 50 -2 70 0 21 2 7 4 -32 4 -38 0 -55 -2 -38 -4z"/>
<path d="M883 285 c0 -38 2 -53 4 -32 2 20 2 52 0 70 -2 17 -4 1 -4 -38z"/>
<path d="M1063 285 c0 -38 2 -53 4 -32 2 20 2 52 0 70 -2 17 -4 1 -4 -38z"/>
<path d="M1410 272 c-3 -46 -2 -86 2 -88 12 -7 13 9 8 91 l-5 80 -5 -83z"/>
<path d="M1764 195 c0 -88 2 -123 3 -77 2 46 2 118 0 160 -1 42 -3 5 -3 -83z"/>
<path d="M2288 273 c-2 -43 0 -114 3 -158 4 -63 6 -47 7 78 2 164 -4 214 -10
80z"/>
<path d="M2640 275 c-3 -44 -3 -116 0 -160 l5 -80 5 80 c3 44 3 116 0 160 l-5
80 -5 -80z"/>
<path d="M1233 285 c0 -33 2 -45 4 -27 2 18 2 45 0 60 -2 15 -4 0 -4 -33z"/>
<path d="M1943 280 c0 -36 2 -50 4 -32 2 17 2 47 0 65 -2 17 -4 3 -4 -33z"/>
<path d="M2993 280 c0 -36 2 -50 4 -32 2 17 2 47 0 65 -2 17 -4 3 -4 -33z"/>
<path d="M68 193 c18 -2 45 -2 60 0 15 2 0 4 -33 4 -33 0 -45 -2 -27 -4z"/>
<path d="M248 193 c18 -2 45 -2 60 0 15 2 0 4 -33 4 -33 0 -45 -2 -27 -4z"/>
<path d="M418 193 c17 -2 47 -2 65 0 17 2 3 4 -33 4 -36 0 -50 -2 -32 -4z"/>
<path d="M598 193 c18 -2 45 -2 60 0 15 2 0 4 -33 4 -33 0 -45 -2 -27 -4z"/>
<path d="M881 128 c2 -77 6 -69 11 20 2 28 0 52 -4 52 -5 0 -7 -33 -7 -72z"/>
<path d="M1118 193 c17 -2 47 -2 65 0 17 2 3 4 -33 4 -36 0 -50 -2 -32 -4z"/>
<path d="M1298 193 c18 -2 45 -2 60 0 15 2 0 4 -33 4 -33 0 -45 -2 -27 -4z"/>
<path d="M1478 193 c18 -2 45 -2 60 0 15 2 0 4 -33 4 -33 0 -45 -2 -27 -4z"/>
<path d="M1648 193 c17 -2 47 -2 65 0 17 2 3 4 -33 4 -36 0 -50 -2 -32 -4z"/>
<path d="M1818 193 c17 -2 47 -2 65 0 17 2 3 4 -33 4 -36 0 -50 -2 -32 -4z"/>
<path d="M1998 193 c17 -2 47 -2 65 0 17 2 3 4 -33 4 -36 0 -50 -2 -32 -4z"/>
<path d="M2178 193 c17 -2 47 -2 65 0 17 2 3 4 -33 4 -36 0 -50 -2 -32 -4z"/>
<path d="M2358 193 c18 -2 45 -2 60 0 15 2 0 4 -33 4 -33 0 -45 -2 -27 -4z"/>
<path d="M2878 193 c18 -2 45 -2 60 0 15 2 0 4 -33 4 -33 0 -45 -2 -27 -4z"/>
<path d="M183 105 c0 -38 2 -53 4 -32 2 20 2 52 0 70 -2 17 -4 1 -4 -38z"/>
<path d="M1413 105 c0 -38 2 -53 4 -32 2 20 2 52 0 70 -2 17 -4 1 -4 -38z"/>
<path d="M1943 115 c0 -33 2 -45 4 -27 2 18 2 45 0 60 -2 15 -4 0 -4 -33z"/>
<path d="M2283 18 c-2 -5 33 -7 79 -7 84 2 77 6 -20 11 -30 2 -56 0 -59 -4z"/>
<path d="M68 13 c17 -2 47 -2 65 0 17 2 3 4 -33 4 -36 0 -50 -2 -32 -4z"/>
<path d="M238 13 c17 -2 47 -2 65 0 17 2 3 4 -33 4 -36 0 -50 -2 -32 -4z"/>
<path d="M418 13 c17 -2 47 -2 65 0 17 2 3 4 -33 4 -36 0 -50 -2 -32 -4z"/>
<path d="M588 13 c17 -2 47 -2 65 0 17 2 3 4 -33 4 -36 0 -50 -2 -32 -4z"/>
<path d="M768 13 c17 -2 47 -2 65 0 17 2 3 4 -33 4 -36 0 -50 -2 -32 -4z"/>
<path d="M1298 13 c17 -2 47 -2 65 0 17 2 3 4 -33 4 -36 0 -50 -2 -32 -4z"/>
<path d="M1468 13 c17 -2 47 -2 65 0 17 2 3 4 -33 4 -36 0 -50 -2 -32 -4z"/>
<path d="M1648 13 c17 -2 47 -2 65 0 17 2 3 4 -33 4 -36 0 -50 -2 -32 -4z"/>
<path d="M1818 13 c17 -2 47 -2 65 0 17 2 3 4 -33 4 -36 0 -50 -2 -32 -4z"/>
<path d="M1998 13 c17 -2 47 -2 65 0 17 2 3 4 -33 4 -36 0 -50 -2 -32 -4z"/>
<path d="M2178 13 c18 -2 45 -2 60 0 15 2 0 4 -33 4 -33 0 -45 -2 -27 -4z"/>
<path d="M2528 13 c17 -2 47 -2 65 0 17 2 3 4 -33 4 -36 0 -50 -2 -32 -4z"/>
<path d="M2698 13 c17 -2 47 -2 65 0 17 2 3 4 -33 4 -36 0 -50 -2 -32 -4z"/>
<path d="M2868 13 c17 -2 47 -2 65 0 17 2 3 4 -33 4 -36 0 -50 -2 -32 -4z"/>
</g>
</svg>
